<svg width="13" height="16" viewBox="0 0 13 16" fill="none" xmlns="http://www.w3.org/2000/svg">
<path d="M0 16V0H4.35533C5.92442 0 7.25888 0.24343 8.35871 0.73029C9.45854 1.2024 10.3457 1.83679 11.0203 2.63347C11.7095 3.43015 12.2081 4.31535 12.5161 5.28907C12.8387 6.24804 13 7.21438 13 8.18811C13 9.38313 12.7874 10.4675 12.3621 11.4412C11.9368 12.4002 11.3576 13.219 10.6244 13.8976C9.89114 14.5763 9.04794 15.1 8.09475 15.4689C7.15623 15.823 6.16638 16 5.12521 16H0ZM2.13367 13.9198H4.70728C5.86576 13.9198 6.89961 13.6911 7.8088 13.2337C8.73266 12.7764 9.45854 12.1125 9.98646 11.242C10.5144 10.3568 10.7783 9.28723 10.7783 8.0332C10.7783 6.7349 10.4997 5.64315 9.94247 4.75795C9.39989 3.87275 8.674 3.20148 7.76481 2.74412C6.87028 2.28677 5.91709 2.05809 4.90525 2.05809H2.13367V13.9198Z" fill="url(#paint0_linear)"/>
<defs>
<linearGradient id="paint0_linear" x1="0" y1="0" x2="14.5" y2="21" gradientUnits="userSpaceOnUse">
<stop/>
<stop offset="1" stop-opacity="0"/>
</linearGradient>
</defs>
</svg>
